<?xml version="1.0" encoding="utf-8"?><svg viewBox="0 0 32 32" xmlns="http://www.w3.org/2000/svg" xmlns:xlink="http://www.w3.org/1999/xlink"><style>:root>svg{display:none}:root>svg:target{display:block}</style><svg viewBox="0 0 20 20" id="minus-circle" xmlns="http://www.w3.org/2000/svg"><path d="M10 1.667a8.333 8.333 0 100 16.666 8.333 8.333 0 000-16.666zm0 15a6.667 6.667 0 110-13.334 6.667 6.667 0 010 13.333zm3.333-7.5H6.667a.833.833 0 000 1.666h6.666a.833.833 0 000-1.667z"/></svg><svg viewBox="0 0 20 20" id="plus-circle" xmlns="http://www.w3.org/2000/svg"><path d="M10 1.667a8.333 8.333 0 100 16.666 8.333 8.333 0 000-16.666zm0 15a6.667 6.667 0 110-13.334 6.667 6.667 0 010 13.333zm3.333-7.5h-2.5v-2.5a.833.833 0 10-1.666 0v2.5h-2.5a.833.833 0 000 1.666h2.5v2.5a.833.833 0 001.666 0v-2.5h2.5a.833.833 0 000-1.667z"/></svg><svg viewBox="0 0 32 32" id="star" xmlns="http://www.w3.org/2000/svg"><path d="M15.168 5.06a.93.93 0 011.666 0l2.988 6.056a.93.93 0 00.7.508l6.682.97a.928.928 0 01.515 1.585l-4.835 4.713a.93.93 0 00-.268.823l1.141 6.655a.93.93 0 01-1.348.98l-5.977-3.142a.928.928 0 00-.865 0L9.59 27.35a.93.93 0 01-1.348-.98l1.141-6.655a.929.929 0 00-.268-.823L4.281 14.18a.93.93 0 01.515-1.584l6.683-.971a.929.929 0 00.7-.509l2.989-6.054z"/></svg><svg viewBox="0 0 32 32" id="star-filled" xmlns="http://www.w3.org/2000/svg"><path d="M15.168 5.06a.93.93 0 011.666 0l2.988 6.056a.93.93 0 00.7.508l6.682.97a.928.928 0 01.515 1.585l-4.835 4.713a.93.93 0 00-.268.823l1.141 6.655a.93.93 0 01-1.348.98l-5.977-3.142a.928.928 0 00-.865 0L9.59 27.35a.93.93 0 01-1.348-.98l1.141-6.655a.929.929 0 00-.268-.823L4.281 14.18a.93.93 0 01.515-1.584l6.683-.971a.929.929 0 00.7-.509l2.989-6.054z"/></svg></svg>